<?xml version="1.0"?><svg width="793.7007874015749" height="1122.5196850393702" xmlns="http://www.w3.org/2000/svg" xmlns:xlink="http://www.w3.org/1999/xlink">
 <title>animal angel</title>
 <metadata id="metadata2156">image/svg+xml</metadata>
 <defs>
  <symbol id="svg_32" xmlns:xlink="http://www.w3.org/1999/xlink">
   <defs>
    <filter height="1.3411" y="-0.17055" width="1.185129" x="-0.092564" id="svg_18">
     <feGaussianBlur id="svg_31" stdDeviation="8.98418"/>
    </filter>
   </defs>
   <metadata id="svg_19">image/svg+xml</metadata>
   <g id="svg_10">
    <path fill="none" fill-rule="evenodd" stroke="#000000" stroke-width="5" marker-start="none" marker-mid="none" stroke-miterlimit="4" stroke-dashoffset="0" filter="url(#svg_18)" id="svg_17" d="m227.456055,91.256927a106.118057,54.875561 0 1 1 -212.236084,0a106.118057,54.875561 0 1 1 212.236084,0z"/>
    <path fill="url(#svg_16)" fill-rule="evenodd" stroke-width="5" marker-start="none" marker-mid="none" stroke-miterlimit="4" stroke-dashoffset="0" d="m86.062897,6.683731c-48.394867,7.013779 -84.0625,30.539261 -84.0625,58.531265l0,20c0,33.513672 51.057068,60.71875 113.96875,60.71875c62.911652,0 113.968719,-27.205078 113.968719,-60.71875l0,-20c0,-28.009705 -35.714661,-51.534012 -84.156219,-58.531265c2.66745,0.463913 5.31424,0.949402 7.875,1.53125c2.897186,0.65831 5.72348,1.386475 8.46875,2.1875c2.745239,0.801041 5.422943,1.689987 8,2.625c2.577057,0.935028 5.044922,1.939728 7.4375,3c2.392548,1.060287 4.714417,2.166946 6.906219,3.34375c2.191833,1.176819 4.275208,2.402924 6.25,3.6875c1.974792,1.284592 3.821045,2.616379 5.5625,4.000015c1.741516,1.383636 3.383118,2.838531 4.875,4.3125c1.491943,1.473938 2.836426,2.975708 4.0625,4.53125c1.226135,1.555511 2.30603,3.152863 3.25,4.78125c0.94397,1.628357 1.760681,3.307526 2.40625,5c0.64563,1.692474 1.137817,3.408386 1.46875,5.15625c0.330933,1.747833 0.5,3.518036 0.5,5.3125c0,1.794464 -0.169067,3.564636 -0.5,5.3125c-0.330933,1.747833 -0.82312,3.463776 -1.46875,5.15625c-0.645569,1.692474 -1.46228,3.371613 -2.40625,5c-0.94397,1.628357 -2.023865,3.194458 -3.25,4.75c-0.564087,0.715637 -1.253723,1.394867 -1.875,2.09375c-9.86792,17.570374 -45.237305,30.59375 -87.374969,30.59375c-42.137695,-0.000031 -77.50705,-13.023376 -87.375,-30.59375c-0.621277,-0.698883 -1.310913,-1.378113 -1.875,-2.09375c-1.226105,-1.555542 -2.33728,-3.121643 -3.28125,-4.75c-0.94397,-1.628387 -1.729431,-3.307526 -2.375,-5c-0.645599,-1.692474 -1.137817,-3.408417 -1.46875,-5.15625c-0.330933,-1.747864 -0.5,-3.518036 -0.5,-5.3125c0,-1.794464 0.169067,-3.564667 0.5,-5.3125c0.330933,-1.747864 0.823151,-3.463776 1.46875,-5.15625c0.645569,-1.692474 1.43103,-3.371643 2.375,-5c0.94397,-1.628387 2.055145,-3.225739 3.28125,-4.78125c1.226074,-1.555542 2.570557,-3.057312 4.0625,-4.53125c1.491913,-1.473969 3.133484,-2.928864 4.875,-4.3125c1.741486,-1.383636 3.587708,-2.715424 5.5625,-4.000015c1.974792,-1.284576 4.058167,-2.510681 6.25,-3.6875c2.191803,-1.176804 4.482422,-2.283463 6.875,-3.34375c2.392548,-1.060272 4.891693,-2.064972 7.46875,-3c2.577057,-0.935013 5.25473,-1.823959 8,-2.625c2.745239,-0.801025 5.571533,-1.52919 8.46875,-2.1875c2.539948,-0.577118 5.13623,-1.070129 7.78125,-1.53125z" id="svg_15"/>
    <path fill="url(#svg_14)" fill-rule="evenodd" stroke-width="5" marker-start="none" marker-mid="none" stroke-miterlimit="4" stroke-dashoffset="0" d="m86.062897,6.683731c-2.64502,0.461121 -5.241302,0.954132 -7.78125,1.53125c-2.897217,0.65831 -5.723511,1.386475 -8.46875,2.1875c-2.74527,0.801041 -5.422943,1.689987 -8,2.625c-2.577057,0.935028 -5.076202,1.939728 -7.46875,3c-2.392578,1.060287 -4.683197,2.166946 -6.875,3.34375c-2.191833,1.176819 -4.275208,2.402924 -6.25,3.6875c-1.974792,1.284592 -3.821014,2.616379 -5.5625,4.000015c-1.741516,1.383636 -3.383087,2.838531 -4.875,4.3125c-1.491943,1.473938 -2.836426,2.975708 -4.0625,4.53125c-1.226105,1.555511 -2.33728,3.152863 -3.28125,4.78125c-0.94397,1.628357 -1.729431,3.307526 -2.375,5c-0.645599,1.692474 -1.137817,3.408386 -1.46875,5.15625c-0.330933,1.747833 -0.5,3.518036 -0.5,5.3125c0,1.794464 0.169067,3.564636 0.5,5.3125c0.330933,1.747833 0.823151,3.463776 1.46875,5.15625c0.645569,1.692474 1.43103,3.371613 2.375,5c0.94397,1.628357 2.055145,3.194458 3.28125,4.75c0.564087,0.715637 1.253723,1.394867 1.875,2.09375c-0.602997,-1.073669 -1.154572,-2.144165 -1.5625,-3.25c7.083649,-19.202881 44.224945,-33.84375 88.9375,-33.84375c44.712555,0 81.853851,14.640869 88.937469,33.84375c-0.407898,1.105835 -0.959473,2.176331 -1.5625,3.25c0.621277,-0.698883 1.310913,-1.378113 1.875,-2.09375c1.226135,-1.555542 2.30603,-3.121643 3.25,-4.75c0.94397,-1.628387 1.760681,-3.307526 2.40625,-5c0.64563,-1.692474 1.137817,-3.408417 1.46875,-5.15625c0.330933,-1.747864 0.5,-3.518036 0.5,-5.3125c0,-1.794464 -0.169067,-3.564667 -0.5,-5.3125c-0.330933,-1.747864 -0.82312,-3.463776 -1.46875,-5.15625c-0.645569,-1.692474 -1.46228,-3.371643 -2.40625,-5c-0.94397,-1.628387 -2.023865,-3.225739 -3.25,-4.78125c-1.226074,-1.555542 -2.570557,-3.057312 -4.0625,-4.53125c-1.491882,-1.473969 -3.133484,-2.928864 -4.875,-4.3125c-1.741455,-1.383636 -3.587708,-2.715424 -5.5625,-4.000015c-1.974792,-1.284576 -4.058167,-2.510681 -6.25,-3.6875c-2.191803,-1.176804 -4.513672,-2.283463 -6.906219,-3.34375c-2.392578,-1.060272 -4.860443,-2.064972 -7.4375,-3c-2.577057,-0.935013 -5.254761,-1.823959 -8,-2.625c-2.74527,-0.801025 -5.571564,-1.52919 -8.46875,-2.1875c-2.56076,-0.581848 -5.20755,-1.067337 -7.875,-1.53125c-9.518951,-1.374969 -19.480438,-2.1875 -29.8125,-2.1875c-10.365265,0 -20.359924,0.80397 -29.90625,2.1875z" id="svg_13"/>
    <path fill="none" fill-rule="evenodd" stroke="url(#svg_12)" stroke-width="5" marker-start="none" marker-mid="none" stroke-miterlimit="4" stroke-dashoffset="0" d="m212.840942,56.146484a96.875977,52.01355 0 1 1 -193.751923,0a96.875977,52.01355 0 1 1 193.751923,0z" id="svg_11"/>
   </g>
  </symbol>
  <linearGradient id="svg_26">
   <stop stop-color="#f4e86c" id="svg_30" offset="0"/>
   <stop stop-color="#f4e86c" offset="0.66028" id="svg_29"/>
   <stop stop-color="#d8b436" offset="0.836735" id="svg_28"/>
   <stop stop-color="#bc8000" id="svg_27" offset="1"/>
  </linearGradient>
  <radialGradient gradientUnits="userSpaceOnUse" gradientTransform="matrix(-7.2141e-08, 0.704172, -1.22426, -1.25423e-07, 1198.8, 112.873)" r="113.96875" fy="619.104" fx="260.4259" cy="619.104" cx="260.4259" id="svg_16" xlink:href="#svg_26"/>
  <linearGradient id="svg_23">
   <stop stop-color="#f0e464" id="svg_25" offset="0"/>
   <stop stop-color="#d4a41c" id="svg_24" offset="1"/>
  </linearGradient>
  <radialGradient gradientUnits="userSpaceOnUse" gradientTransform="matrix(1.64359, 1.31046e-06, -4.49005e-08, 0.658971, 36.1199, -92.3195)" r="96.875" fy="509.16125" fx="248.68613" cy="509.16125" cx="248.68613" id="svg_14" xlink:href="#svg_23"/>
  <linearGradient id="svg_20">
   <stop stop-color="#fcfc80" id="svg_22" offset="0"/>
   <stop stop-color="#ecd450" id="svg_21" offset="1"/>
  </linearGradient>
  <linearGradient y2="Infinity" x2="-0.51925" y1="-Infinity" x1="-0.51925" id="svg_12" xlink:href="#svg_20"/>
 </defs>
 <g>
  <title>Layer 1</title>
  <ellipse ry="1" id="svg_7" cy="260.480347" cx="427.299194" stroke-linecap="null" stroke-linejoin="null" stroke-dasharray="null" stroke-width="null" stroke="null" fill="null"/>
  <use fill="#ffff00" x="179.898692" y="56.45062" transform="rotate(15.8028 396.48 262.076) matrix(1.20446 0 0 0.560221 40.1185 188.359)" xlink:href="#svg_32" id="svg_33"/>
 </g>
</svg>