<?xml version="1.0"?><svg width="3000" height="3000" xmlns="http://www.w3.org/2000/svg" xmlns:xlink="http://www.w3.org/1999/xlink">
 <title>baseball angel halo</title>
 <metadata id="metadata2156">image/svg+xml</metadata>
 <defs>
  <symbol id="svg_32" xmlns:xlink="http://www.w3.org/1999/xlink">
   <defs>
    <filter id="svg_18" width="1.185129" height="1.3411" y="-0.17055" x="-0.092564">
     <feGaussianBlur id="svg_31" stdDeviation="8.98418"/>
    </filter>
   </defs>
   <metadata id="svg_19">image/svg+xml</metadata>
   <g id="svg_10">
    <path id="svg_17" fill="none" fill-rule="evenodd" marker-mid="none" marker-start="none" stroke="#000000" stroke-dashoffset="0" stroke-miterlimit="4" stroke-width="5" d="m227.455994,91.256989a106.117996,54.875599 0 1 1-212.235993,0a106.117996,54.875599 0 1 1212.235993,0z" filter="url(#svg_18)"/>
    <path id="svg_15" fill="url(#svg_16)" fill-rule="evenodd" marker-mid="none" marker-start="none" stroke-dashoffset="0" stroke-miterlimit="4" stroke-width="5" d="m86.062988,6.68399c-48.394989,7.01401 -84.062988,30.538998 -84.062988,58.531006l0,20c0,33.514 51.057011,60.718994 113.968987,60.718994c62.912025,0 113.969002,-27.204994 113.969002,-60.718994l0,-20c0,-28.010006 -35.714966,-51.533997 -84.155975,-58.531006c2.666992,0.46401 5.313995,0.94901 7.875,1.53101c2.896973,0.658 5.722992,1.386 8.467987,2.18699c2.746002,0.802 5.423004,1.690001 8,2.625c2.576996,0.93601 5.045013,1.94 7.437988,3.000001c2.391998,1.061008 4.71402,2.167009 6.906006,3.344009c2.192017,1.177 4.275024,2.403 6.25,3.68799c1.974976,1.28401 3.820984,2.615999 5.562988,4c1.741028,1.382999 3.382996,2.838009 4.875,4.31201c1.492004,1.474001 2.835999,2.975981 4.062012,4.531012c1.226013,1.556 2.30603,3.152977 3.25,4.781979c0.944031,1.628021 1.760986,3.307011 2.406006,5c0.645996,1.69202 1.138,3.40802 1.468994,5.155998c0.330994,1.74799 0.5,3.518013 0.5,5.312023c0,1.794979 -0.169006,3.564999 -0.5,5.312977c-0.330994,1.74799 -0.822998,3.463989 -1.468994,5.156013c-0.64502,1.692986 -1.461975,3.372009 -2.406006,5c-0.94397,1.628998 -2.023987,3.195007 -3.25,4.75c-0.563965,0.715996 -1.253967,1.394989 -1.875,2.093987c-9.867981,17.570015 -45.237,30.594002 -87.375008,30.594002c-42.137993,0 -77.506977,-13.023987 -87.374996,-30.594002c-0.621,-0.698997 -1.311001,-1.377991 -1.875,-2.093987c-1.225981,-1.554993 -2.337,-3.121002 -3.281,-4.75c-0.944,-1.627991 -1.72998,-3.307014 -2.375,-5c-0.646,-1.692024 -1.138,-3.408024 -1.469,-5.156013c-0.33099,-1.747978 -0.5,-3.517998 -0.5,-5.312977c0,-1.79401 0.16901,-3.564034 0.5,-5.312023c0.330999,-1.747978 0.823,-3.463978 1.469,-5.155998c0.64502,-1.692989 1.431,-3.371979 2.375,-5c0.944,-1.629002 2.055019,-3.225979 3.281,-4.781979c1.226019,-1.555031 2.57102,-3.057011 4.063019,-4.531012c1.491982,-1.474001 3.132999,-2.92901 4.875,-4.31201c1.741001,-1.384001 3.586983,-2.71599 5.561981,-4c1.97501,-1.28499 4.058022,-2.51099 6.25,-3.68799c2.19202,-1.177 4.483009,-2.283001 6.875,-3.344009c2.393009,-1.060001 4.891998,-2.063991 7.468998,-3.000001c2.577019,-0.934999 5.255005,-1.823 8,-2.625c2.745018,-0.80099 5.571014,-1.52899 8.469025,-2.18699c2.539978,-0.577 5.135986,-1.07 7.780975,-1.53101z"/>
    <path id="svg_13" fill="url(#svg_14)" fill-rule="evenodd" marker-mid="none" marker-start="none" stroke-dashoffset="0" stroke-miterlimit="4" stroke-width="5" d="m86.062988,6.68399c-2.644989,0.46101 -5.240997,0.95401 -7.780975,1.53101c-2.89801,0.658 -5.724007,1.386 -8.469025,2.18699c-2.744995,0.802 -5.422981,1.690001 -8,2.625c-2.577,0.93601 -5.075989,1.94 -7.468998,3.000001c-2.391991,1.061008 -4.68298,2.167009 -6.875,3.344009c-2.191978,1.177 -4.27499,2.403 -6.25,3.68799c-1.974998,1.28401 -3.82098,2.615999 -5.561981,4c-1.742001,1.382999 -3.383018,2.838009 -4.875,4.31201c-1.491999,1.474001 -2.837,2.975981 -4.063019,4.531012c-1.225981,1.556 -2.337,3.152977 -3.281,4.781979c-0.944,1.628021 -1.72998,3.307011 -2.375,5c-0.646,1.69202 -1.138,3.40802 -1.469,5.155998c-0.33099,1.74799 -0.5,3.518013 -0.5,5.312023c0,1.794979 0.16901,3.564999 0.5,5.312977c0.330999,1.74799 0.823,3.463989 1.469,5.156013c0.64502,1.692986 1.431,3.372009 2.375,5c0.944,1.628998 2.055019,3.195007 3.281,4.75c0.563999,0.715996 1.254,1.394989 1.875,2.093987c-0.602991,-1.073997 -1.15399,-2.144012 -1.561981,-3.25c7.082981,-19.202999 44.224979,-33.84399 88.936977,-33.84399c44.71302,0 81.854012,14.640991 88.937996,33.84399c-0.407959,1.105988 -0.959961,2.176003 -1.562988,3.25c0.621033,-0.698997 1.311035,-1.377991 1.875,-2.093987c1.226013,-1.554993 2.30603,-3.121002 3.25,-4.75c0.944031,-1.627991 1.760986,-3.307014 2.406006,-5c0.645996,-1.692024 1.138,-3.408024 1.468994,-5.156013c0.330994,-1.747978 0.5,-3.517998 0.5,-5.312977c0,-1.79401 -0.169006,-3.564034 -0.5,-5.312023c-0.330994,-1.747978 -0.822998,-3.463978 -1.468994,-5.155998c-0.64502,-1.692989 -1.461975,-3.371979 -2.406006,-5c-0.94397,-1.629002 -2.023987,-3.225979 -3.25,-4.781979c-1.226013,-1.555031 -2.570007,-3.057011 -4.062012,-4.531012c-1.492004,-1.474001 -3.133972,-2.92901 -4.875,-4.31201c-1.742004,-1.384001 -3.588013,-2.71599 -5.562988,-4c-1.974976,-1.28499 -4.057983,-2.51099 -6.25,-3.68799c-2.191986,-1.177 -4.514008,-2.283001 -6.906006,-3.344009c-2.392975,-1.060001 -4.860992,-2.063991 -7.437988,-3.000001c-2.576996,-0.934999 -5.253998,-1.823 -8,-2.625c-2.744995,-0.80099 -5.571014,-1.52899 -8.467987,-2.18699c-2.561005,-0.582 -5.208008,-1.067 -7.875,-1.53101c-9.519012,-1.375 -19.48101,-2.18799 -29.813011,-2.18799c-10.36499,0 -20.359993,0.804 -29.906013,2.18799z"/>
    <path id="svg_11" fill="none" fill-rule="evenodd" marker-mid="none" marker-start="none" stroke="url(#svg_12)" stroke-dashoffset="0" stroke-miterlimit="4" stroke-width="5" d="m212.841003,56.146a96.875999,52.0135 0 1 1-193.752014,0a96.875999,52.0135 0 1 1193.752014,0z"/>
   </g>
  </symbol>
  <linearGradient id="svg_26">
   <stop id="svg_30" stop-color="#f4e86c" offset="0"/>
   <stop id="svg_29" stop-color="#f4e86c" offset="0.66028"/>
   <stop id="svg_28" stop-color="#d8b436" offset="0.836735"/>
   <stop id="svg_27" stop-color="#bc8000" offset="1"/>
  </linearGradient>
  <radialGradient id="svg_16" gradientUnits="userSpaceOnUse" gradientTransform="matrix(1 0 0 1 -328.888 -230.578)" cx="260.426" cy="619.104" r="113.969" fx="260.426" fy="619.104" xlink:href="#svg_26"/>
  <linearGradient id="svg_23">
   <stop id="svg_25" stop-color="#f0e464" offset="0"/>
   <stop id="svg_24" stop-color="#d4a41c" offset="1"/>
  </linearGradient>
  <radialGradient id="svg_14" gradientUnits="userSpaceOnUse" gradientTransform="matrix(1 0 0 1 -328.888 -230.578)" cx="248.686" cy="509.161" r="96.875" fx="248.686" fy="509.161" xlink:href="#svg_23"/>
  <linearGradient id="svg_20">
   <stop id="svg_22" stop-color="#fcfc80" offset="0"/>
   <stop id="svg_21" stop-color="#ecd450" offset="1"/>
  </linearGradient>
  <linearGradient id="svg_12" x1="Infinity" y1="Infinity" x2="Infinity" y2="Infinity" xlink:href="#svg_20"/>
 </defs>
 <g>
  <title>Layer 1</title>
  <ellipse id="svg_7" fill="null" stroke="null" stroke-dasharray="null" stroke-linecap="null" stroke-linejoin="null" stroke-width="null" cx="427.299" cy="260.48" ry="1"/>
  <use id="svg_33" fill="#ffff00" transform="rotate(-18.440900802612305 1032.9449462890625,537.6189575195315) matrix(8.629169868652005,3.596019078844567e-7,-7.760976358850582e-8,7.556125179618192,28.57352249697606,-93.34909700217376) " x="25.582443" y="149.602373" xlink:href="#svg_32"/>
 </g>
</svg>